<svg width="15" height="15" viewBox="0 0 15 15" fill="none" xmlns="http://www.w3.org/2000/svg">
<path d="M10.6667 4.33371L1.33337 13.6671M12 9.00039H6.00004M4.40004 11.6671H8.89157C9.05457 11.6671 9.13611 11.6671 9.21284 11.6486C9.28091 11.6323 9.34591 11.6053 9.40557 11.5688C9.47284 11.5276 9.53051 11.4699 9.64577 11.3546L13 8.00039C13.1594 7.84106 13.239 7.76139 13.3031 7.69086C14.6899 6.16526 14.6899 3.83549 13.3031 2.30986C13.239 2.23933 13.1594 2.15968 13 2.00037C12.8407 1.84107 12.7611 1.76141 12.6906 1.69731C11.1649 0.310533 8.83517 0.310533 7.30951 1.69731C7.23897 1.76141 7.15937 1.84107 7.00004 2.00037L3.64579 5.35462C3.53049 5.46992 3.47284 5.52757 3.43161 5.59485C3.39506 5.6545 3.36813 5.71953 3.35179 5.78753C3.33337 5.86426 3.33337 5.94579 3.33337 6.10886V10.6004C3.33337 10.9737 3.33337 11.1604 3.40603 11.3031C3.46995 11.4285 3.57194 11.5305 3.69738 11.5944C3.83999 11.6671 4.02667 11.6671 4.40004 11.6671Z" stroke="#B4BDCE" stroke-linecap="round" stroke-linejoin="round"/>
</svg>
