<svg width="16" height="15" viewBox="0 0 16 15" fill="none" xmlns="http://www.w3.org/2000/svg">
<path d="M3.3335 9.02394C2.09926 9.56841 1.3335 10.3271 1.3335 11.1663C1.3335 12.8232 4.31826 14.1663 8.00016 14.1663C11.682 14.1663 14.6668 12.8232 14.6668 11.1663C14.6668 10.3271 13.9011 9.56841 12.6668 9.02394M12.0002 4.83301C12.0002 7.54214 9.00016 8.83301 8.00016 10.833C7.00016 8.83301 4.00016 7.54214 4.00016 4.83301C4.00016 2.62387 5.79102 0.833008 8.00016 0.833008C10.2093 0.833008 12.0002 2.62387 12.0002 4.83301ZM8.66683 4.83301C8.66683 5.20119 8.36836 5.49967 8.00016 5.49967C7.63196 5.49967 7.3335 5.20119 7.3335 4.83301C7.3335 4.46482 7.63196 4.16634 8.00016 4.16634C8.36836 4.16634 8.66683 4.46482 8.66683 4.83301Z" stroke="#5B6E95" stroke-linecap="round" stroke-linejoin="round"/>
</svg>
