<svg width="23" height="24" viewBox="0 0 23 24" fill="none" xmlns="http://www.w3.org/2000/svg">
<path d="M7.41667 12.0833C7.41667 12.0833 8.94792 13.8333 11.5 13.8333C14.0521 13.8333 15.5833 12.0833 15.5833 12.0833M14.7083 6.25H14.72M8.29167 6.25H8.30333M5.66667 18.5V21.2248C5.66667 21.8465 5.66667 22.1573 5.7941 22.3169C5.90492 22.4557 6.07298 22.5365 6.25063 22.5363C6.4549 22.5361 6.69761 22.3419 7.18305 21.9536L9.96607 19.7271C10.5346 19.2723 10.8189 19.045 11.1354 18.8833C11.4162 18.7398 11.7151 18.6349 12.0241 18.5715C12.3723 18.5 12.7363 18.5 13.4643 18.5H16.4C18.3602 18.5 19.3402 18.5 20.089 18.1185C20.7476 17.783 21.283 17.2476 21.6185 16.589C22 15.8402 22 14.8602 22 12.9V6.6C22 4.63981 22 3.65972 21.6185 2.91103C21.283 2.25246 20.7476 1.71703 20.089 1.38148C19.3402 1 18.3602 1 16.4 1H6.6C4.63981 1 3.65972 1 2.91103 1.38148C2.25246 1.71703 1.71703 2.25246 1.38148 2.91103C1 3.65972 1 4.63981 1 6.6V13.8333C1 14.9183 1 15.4608 1.11926 15.9059C1.44289 17.1136 2.38631 18.0571 3.59413 18.3808C4.03921 18.5 4.5817 18.5 5.66667 18.5ZM15.2917 6.25C15.2917 6.57216 15.0304 6.83333 14.7083 6.83333C14.3862 6.83333 14.125 6.57216 14.125 6.25C14.125 5.92784 14.3862 5.66667 14.7083 5.66667C15.0304 5.66667 15.2917 5.92784 15.2917 6.25ZM8.875 6.25C8.875 6.57216 8.61383 6.83333 8.29167 6.83333C7.9695 6.83333 7.70833 6.57216 7.70833 6.25C7.70833 5.92784 7.9695 5.66667 8.29167 5.66667C8.61383 5.66667 8.875 5.92784 8.875 6.25Z" stroke="white" stroke-width="2" stroke-linecap="round" stroke-linejoin="round"/>
</svg>
