<svg width="18" height="18" viewBox="0 0 18 18" fill="none" xmlns="http://www.w3.org/2000/svg">
<path d="M8.15658 2.68682H4.81684C3.48082 2.68682 2.81281 2.68682 2.30252 2.94683C1.85365 3.17554 1.48872 3.54048 1.26001 3.98934C1 4.49964 1 5.16765 1 6.50366V13.1832C1 14.5191 1 15.1872 1.26001 15.6975C1.48872 16.1463 1.85365 16.5113 2.30252 16.74C2.81281 17 3.48082 17 4.81684 17H11.4963C12.8324 17 13.5003 17 14.0107 16.74C14.4595 16.5113 14.8244 16.1463 15.0531 15.6975C15.3132 15.1872 15.3132 14.5191 15.3132 13.1832V9.84342M5.77103 12.2289H7.10259C7.49158 12.2289 7.68608 12.2289 7.86913 12.185C8.03134 12.146 8.18648 12.0818 8.32882 11.9946C8.48928 11.8962 8.62685 11.7587 8.9019 11.4836L16.5059 3.87958C17.1647 3.22085 17.1647 2.15281 16.5059 1.49406C15.8472 0.835318 14.7791 0.83531 14.1204 1.49406L6.51632 9.0981C6.24127 9.37315 6.10374 9.51072 6.00538 9.67118C5.91819 9.81352 5.85394 9.96858 5.81497 10.1309C5.77103 10.3139 5.77103 10.5084 5.77103 10.8974V12.2289Z" stroke="#2A2C41" stroke-width="2" stroke-linecap="round" stroke-linejoin="round"/>
</svg>
