<svg width="26" height="25" viewBox="0 0 26 25" fill="none" xmlns="http://www.w3.org/2000/svg">
<path d="M9.50004 23.5V14.8667C9.50004 14.2132 9.50004 13.8865 9.62721 13.637C9.73906 13.4174 9.91753 13.239 10.1371 13.1272C10.3866 13 10.7134 13 11.3667 13H14.6334C15.2868 13 15.6135 13 15.863 13.1272C16.0826 13.239 16.261 13.4174 16.3729 13.637C16.5 13.8865 16.5 14.2132 16.5 14.8667V23.5M1.33337 10.0833L11.88 2.17333C12.2817 1.87211 12.4825 1.72149 12.703 1.66343C12.8977 1.61219 13.1024 1.61219 13.2971 1.66344C13.5176 1.72149 13.7184 1.87211 14.12 2.17333L24.6667 10.0833M3.66671 8.33333V19.7667C3.66671 21.0734 3.66671 21.7269 3.92103 22.226C4.14474 22.665 4.50169 23.022 4.94073 23.2457C5.43987 23.5 6.09326 23.5 7.40004 23.5H18.6C19.9068 23.5 20.5603 23.5 21.0594 23.2457C21.4984 23.022 21.8554 22.665 22.079 22.226C22.3334 21.7269 22.3334 21.0734 22.3334 19.7667V8.33333L15.24 3.01333C14.4368 2.41088 14.0351 2.10966 13.594 1.99354C13.2047 1.89105 12.7954 1.89105 12.4061 1.99354C11.965 2.10966 11.5633 2.41088 10.76 3.01333L3.66671 8.33333Z" stroke="#AFC2DD" stroke-width="2" stroke-linecap="round" stroke-linejoin="round"/>
</svg>
