<svg width="15" height="18" viewBox="0 0 15 18" fill="none" xmlns="http://www.w3.org/2000/svg">
<path d="M3.55319 10.6438H6.24341V8.28131H7.93363V10.6438H10.6238V4.5901L7.08852 2.89988L3.5522 4.5901L3.55319 10.6438ZM7.08852 18C4.741 15.9242 2.97286 13.9882 1.78412 12.1921C0.594706 10.396 0 8.76142 0 7.28831C0 5.1752 0.687941 3.43238 2.06382 2.05983C3.44037 0.686608 5.11527 0 7.08852 0C9.06177 0 10.7367 0.686608 12.1132 2.05983C13.4891 3.43238 14.177 5.1752 14.177 7.28831C14.177 8.76142 13.5827 10.396 12.3939 12.1921C11.2045 13.9882 9.43604 15.9242 7.08852 18Z" fill="white"/>
</svg>
