<svg width="16" height="19" viewBox="0 0 16 19" fill="none" xmlns="http://www.w3.org/2000/svg">
<path d="M5.50016 9.58366L7.16683 11.2503L10.9168 7.5003M14.6668 10.0003C14.6668 14.0907 10.2052 17.0657 8.58183 18.0127C8.39733 18.1203 8.30508 18.1742 8.17491 18.2021C8.07383 18.2237 7.9265 18.2237 7.82541 18.2021C7.69525 18.1742 7.603 18.1203 7.4185 18.0127C5.79513 17.0657 1.3335 14.0907 1.3335 10.0003V6.01497C1.3335 5.34871 1.3335 5.01558 1.44246 4.72922C1.53872 4.47625 1.69515 4.25053 1.89821 4.07158C2.12808 3.869 2.44 3.75203 3.06383 3.51809L7.532 1.84253C7.70525 1.77756 7.79183 1.74508 7.881 1.7322C7.96 1.72078 8.04033 1.72078 8.11933 1.7322C8.2085 1.74508 8.29508 1.77756 8.46833 1.84253L12.9365 3.51809C13.5603 3.75203 13.8722 3.869 14.1021 4.07158C14.3052 4.25053 14.4616 4.47625 14.5578 4.72922C14.6668 5.01558 14.6668 5.34871 14.6668 6.01497V10.0003Z" stroke="white" stroke-width="1.5" stroke-linecap="round" stroke-linejoin="round"/>
</svg>
