<svg width="26" height="26" viewBox="0 0 26 26" fill="none" xmlns="http://www.w3.org/2000/svg">
<path d="M5.20239 21.6778C5.9121 20.0057 7.56911 18.833 9.50004 18.833H16.5C18.431 18.833 20.088 20.0057 20.7977 21.6778M17.6667 10.083C17.6667 12.6603 15.5773 14.7497 13 14.7497C10.4227 14.7497 8.33337 12.6603 8.33337 10.083C8.33337 7.50568 10.4227 5.41634 13 5.41634C15.5773 5.41634 17.6667 7.50568 17.6667 10.083ZM24.6667 12.9997C24.6667 19.4429 19.4433 24.6663 13 24.6663C6.55672 24.6663 1.33337 19.4429 1.33337 12.9997C1.33337 6.55635 6.55672 1.33301 13 1.33301C19.4433 1.33301 24.6667 6.55635 24.6667 12.9997Z" stroke="#AFC2DD" stroke-width="2" stroke-linecap="round" stroke-linejoin="round"/>
</svg>
