<svg width="26" height="24" viewBox="0 0 26 24" fill="none" xmlns="http://www.w3.org/2000/svg">
<path d="M24.6667 9.66667H1.33337M11.8334 20.1667H20.9334C22.2402 20.1667 22.8936 20.1667 23.3927 19.9123C23.8317 19.6887 24.1887 19.3317 24.4124 18.8927C24.6667 18.3936 24.6667 17.7401 24.6667 16.4333V7.56667C24.6667 6.25988 24.6667 5.60648 24.4124 5.10736C24.1887 4.66832 23.8317 4.31136 23.3927 4.08765C22.8936 3.83333 22.2402 3.83333 20.9334 3.83333H18.8334M11.8334 20.1667L14.1667 22.5M11.8334 20.1667L14.1667 17.8333M7.16671 20.1667H5.06671C3.75991 20.1667 3.10652 20.1667 2.6074 19.9123C2.16835 19.6887 1.81139 19.3317 1.5877 18.8927C1.33337 18.3936 1.33337 17.7401 1.33337 16.4333V7.56667C1.33337 6.25988 1.33337 5.60648 1.5877 5.10736C1.81139 4.6683 2.16836 4.31135 2.6074 4.08765C3.10652 3.83333 3.75992 3.83333 5.06671 3.83333H14.1667M14.1667 3.83333L11.8334 6.16667M14.1667 3.83333L11.8334 1.5" stroke="#AFC2DD" stroke-width="2" stroke-linecap="round" stroke-linejoin="round"/>
</svg>
