<svg width="240" height="200" viewBox="0 0 240 200" fill="none" xmlns="http://www.w3.org/2000/svg">
<path d="M105.608 28.7365C108.798 19.4199 113.192 13.1125 120.317 6.45801C127.748 13.7891 131.308 19.0249 134.775 28.9854C138.96 23.8762 142.78 19.7892 148.417 16.2589C150.297 15.081 152.397 14.2502 154.216 12.9769C155.751 15.4218 153.449 38.2775 151.077 40.6163C152.482 40.0309 153.935 38.6129 155.171 37.6851C163.956 31.0889 175.607 26.2215 186.435 25.0141C188.904 24.7389 191.378 24.8442 193.851 24.6839C193.876 25.4278 192.241 26.8795 191.709 27.4503C185.728 33.8678 180.4 41.9295 179.126 50.8248C178.947 52.0674 179.182 53.6625 178.628 54.8023C178.473 55.235 175.066 56.9119 174.431 57.2689C160.9 64.8726 149.444 75.3035 141.224 88.6546C140.236 90.2598 139.112 91.9592 138.388 93.7022C137.91 94.8524 137.781 96.4095 136.922 97.348C137.338 95.5173 135.952 89.9166 135.664 87.7743C134.413 78.4782 134.094 68.1866 136.995 59.1359C138.039 55.881 140.019 52.5027 140.753 49.256C141.278 46.9379 140.529 38.7463 138.847 37.1507C138.841 37.6187 134.808 43.3514 134.107 44.5818C127.841 55.5837 125.422 68.1297 126.147 80.7589C126.431 85.712 127.056 90.6462 126.897 95.6153C125.444 88.9154 125.269 81.4885 124.069 74.6195C123.079 68.9532 120.984 63.3055 120.125 57.8546C119.855 58.568 119.637 59.3027 119.406 60.0295C117.742 65.9003 116.209 71.9701 115.396 78.0253C114.669 83.4358 114.443 88.9457 113.573 94.3297C113.329 92.5045 113.444 90.5679 113.443 88.7274L113.445 79.4897C113.461 66.3686 112.618 55.6775 105.625 43.8524C104.197 41.4381 102.416 39.2087 100.845 36.8819C99.5326 40.5462 98.1661 44.4798 98.38 48.4397C98.4568 49.8651 99.6739 51.2248 100.268 52.4932C107.64 68.2283 104.444 83.0361 102.843 99.6406C97.9079 81.0529 77.8624 63.545 61.1927 55.0891C61.209 44.2498 55.53 34.6838 47.9489 27.4211C47.0369 26.5474 46.0402 25.7642 45.1831 24.8337C56.7329 23.2909 71.5256 29.1811 81.1412 35.0669C84.2585 36.9751 87.0692 39.3466 90.1704 41.2485C86.2157 33.0048 86.1754 21.7061 86.9349 12.7344C94.472 16.3645 100.443 22.2667 105.608 28.7365Z" fill="#FCC050"/>
<path d="M8.71826 57.2949C12.8281 55.6032 21.0688 55.0863 25.5702 54.9527C57.9651 54.3818 92.3397 80.1562 97.7629 112.955C112.248 113.132 126.748 112.93 141.234 112.986C141.702 112.316 142.335 108.364 142.583 107.398C151.272 73.4497 192.386 49.3081 225.902 56.1448C227.405 56.4516 229.335 56.7424 230.709 57.3922C230.075 57.9393 227.61 58.494 226.667 58.872C219.268 61.8393 212.644 67.4248 209.428 74.8724C208.834 76.2489 208.476 79.5142 207.557 80.4609C189.153 75.8855 166.602 91.6333 160.345 108.421C159.826 109.815 159.675 111.755 158.746 112.928C163.391 113.083 168.067 112.973 172.717 112.973L200.947 112.989L215.589 112.97C219.795 112.969 224.006 112.906 228.208 113.09C228.887 114.533 228.398 116.982 228.398 118.568L228.395 125.016C228.394 126.047 228.733 128.025 228.187 128.917C216.912 129.101 205.606 128.937 194.329 128.937L51.8596 128.938C38.1366 128.938 24.4007 129.067 10.6789 128.908C11.1351 124.615 10.9889 117.33 10.7495 112.951C23.7752 113.136 36.8243 112.97 49.8534 112.973L68.6 112.974C72.3504 112.974 76.1104 113.031 79.8595 112.92C74.3772 93.0348 53.4919 75.6403 32.3139 80.6933C30.1059 71.6878 24.4425 64.0543 15.9565 60.0691C13.6039 58.9644 11.0905 58.3343 8.71826 57.2949Z" fill="#FCC050"/>
<path d="M24.7833 164.17C23.1966 164.17 21.7006 163.875 20.2953 163.286C18.89 162.674 17.6546 161.824 16.5893 160.736C15.524 159.625 14.6853 158.322 14.0733 156.826C13.484 155.307 13.1893 153.619 13.1893 151.76C13.1893 150.083 13.4953 148.519 14.1073 147.068C14.7193 145.617 15.5693 144.337 16.6573 143.226C17.7453 142.115 19.0146 141.254 20.4653 140.642C21.9386 140.007 23.5253 139.69 25.2253 139.69C27.4466 139.69 29.4073 140.166 31.1073 141.118C32.8073 142.07 34.0653 143.351 34.8813 144.96L30.7333 148.088C30.1893 147.023 29.396 146.184 28.3533 145.572C27.3333 144.96 26.2226 144.654 25.0213 144.654C24.1146 144.654 23.276 144.847 22.5053 145.232C21.7573 145.595 21.1 146.116 20.5333 146.796C19.9893 147.453 19.57 148.224 19.2753 149.108C18.9806 149.992 18.8333 150.944 18.8333 151.964C18.8333 153.007 18.992 153.97 19.3093 154.854C19.6266 155.738 20.0686 156.509 20.6353 157.166C21.202 157.801 21.8706 158.299 22.6413 158.662C23.4346 159.025 24.3073 159.206 25.2593 159.206C26.4153 159.206 27.5146 158.923 28.5573 158.356C29.6226 157.767 30.5973 156.905 31.4813 155.772V161.28C29.5546 163.207 27.322 164.17 24.7833 164.17ZM31.1413 155.432H26.4493V151.386H35.7653V164H31.1413V155.432ZM41.4516 164V139.86H52.3316C53.465 139.86 54.5076 140.098 55.4596 140.574C56.4343 141.027 57.273 141.651 57.9756 142.444C58.6783 143.215 59.2223 144.087 59.6077 145.062C60.0156 146.037 60.2196 147.023 60.2196 148.02C60.2196 149.017 60.061 149.969 59.7436 150.876C59.4263 151.76 58.973 152.565 58.3836 153.29C57.7943 153.993 57.0916 154.571 56.2756 155.024L61.5796 164H55.4256L50.8016 156.214H47.0276V164H41.4516ZM47.0276 151.352H52.1276C52.581 151.352 52.9776 151.216 53.3176 150.944C53.6803 150.649 53.975 150.253 54.2016 149.754C54.4283 149.255 54.5416 148.677 54.5416 148.02C54.5416 147.363 54.4056 146.796 54.1336 146.32C53.8843 145.821 53.567 145.436 53.1816 145.164C52.7963 144.892 52.3883 144.756 51.9576 144.756H47.0276V151.352ZM66.229 164V139.86H71.805V164H66.229ZM82.1624 139.86L87.3644 150.536L92.6344 139.86H98.7204L90.1184 155.772V164H84.5764V155.704L76.1104 139.86H82.1624ZM106.53 139.86H112.548L120.844 164H115.132L113.262 158.594H105.748L103.912 164H98.1998L106.53 139.86ZM112.344 154.752L109.522 145.47L106.632 154.752H112.344ZM144.361 164.17C142.775 164.17 141.279 163.875 139.873 163.286C138.468 162.674 137.233 161.824 136.167 160.736C135.102 159.625 134.263 158.322 133.651 156.826C133.062 155.307 132.767 153.619 132.767 151.76C132.767 150.083 133.073 148.519 133.685 147.068C134.297 145.617 135.147 144.337 136.235 143.226C137.323 142.115 138.593 141.254 140.043 140.642C141.517 140.007 143.103 139.69 144.803 139.69C147.025 139.69 148.985 140.166 150.685 141.118C152.385 142.07 153.643 143.351 154.459 144.96L150.311 148.088C149.767 147.023 148.974 146.184 147.931 145.572C146.911 144.96 145.801 144.654 144.599 144.654C143.693 144.654 142.854 144.847 142.083 145.232C141.335 145.595 140.678 146.116 140.111 146.796C139.567 147.453 139.148 148.224 138.853 149.108C138.559 149.992 138.411 150.944 138.411 151.964C138.411 153.007 138.57 153.97 138.887 154.854C139.205 155.738 139.647 156.509 140.213 157.166C140.78 157.801 141.449 158.299 142.219 158.662C143.013 159.025 143.885 159.206 144.837 159.206C145.993 159.206 147.093 158.923 148.135 158.356C149.201 157.767 150.175 156.905 151.059 155.772V161.28C149.133 163.207 146.9 164.17 144.361 164.17ZM150.719 155.432H146.027V151.386H155.343V164H150.719V155.432ZM177.996 159.104V164H161.03V139.86H177.69V144.756H166.606V149.448H176.126V153.97H166.606V159.104H177.996ZM183.383 164V139.86H192.393C195.045 139.86 197.255 140.404 199.023 141.492C200.814 142.557 202.163 144.008 203.069 145.844C203.976 147.657 204.429 149.675 204.429 151.896C204.429 154.344 203.931 156.475 202.933 158.288C201.936 160.101 200.531 161.507 198.717 162.504C196.927 163.501 194.819 164 192.393 164H183.383ZM198.751 151.896C198.751 150.491 198.502 149.255 198.003 148.19C197.505 147.102 196.779 146.263 195.827 145.674C194.875 145.062 193.731 144.756 192.393 144.756H188.959V159.104H192.393C193.753 159.104 194.898 158.798 195.827 158.186C196.779 157.551 197.505 156.69 198.003 155.602C198.502 154.491 198.751 153.256 198.751 151.896ZM226.687 159.104V164H209.721V139.86H226.381V144.756H215.297V149.448H224.817V153.97H215.297V159.104H226.687ZM61.0805 196V181.618L55.8785 192.09H52.8185L47.6165 181.618V196H42.0405V171.86H48.0925L54.3485 184.474L60.6385 171.86H66.6565V196H61.0805ZM83.6625 196.204C81.7358 196.204 80.0925 195.887 78.7325 195.252C77.3725 194.595 76.2618 193.711 75.4005 192.6C74.5618 191.467 73.9385 190.186 73.5305 188.758C73.1451 187.307 72.9525 185.789 72.9525 184.202V171.86H78.5285V184.202C78.5285 185.109 78.6191 185.993 78.8005 186.854C78.9818 187.693 79.2765 188.441 79.6845 189.098C80.0925 189.755 80.6138 190.277 81.2485 190.662C81.9058 191.047 82.7105 191.24 83.6625 191.24C84.6371 191.24 85.4531 191.047 86.1105 190.662C86.7678 190.254 87.2891 189.721 87.6745 189.064C88.0598 188.384 88.3431 187.625 88.5245 186.786C88.7058 185.947 88.7965 185.086 88.7965 184.202V171.86H94.3725V184.202C94.3725 185.879 94.1571 187.443 93.7265 188.894C93.3185 190.345 92.6838 191.625 91.8225 192.736C90.9611 193.824 89.8505 194.674 88.4905 195.286C87.1531 195.898 85.5438 196.204 83.6625 196.204ZM106.269 182.196V196H100.693V171.86H105.113L116.299 186.072V171.86H121.875V196H117.319L106.269 182.196ZM128.492 196V171.86H137.502C140.154 171.86 142.364 172.404 144.132 173.492C145.922 174.557 147.271 176.008 148.178 177.844C149.084 179.657 149.538 181.675 149.538 183.896C149.538 186.344 149.039 188.475 148.042 190.288C147.044 192.101 145.639 193.507 143.826 194.504C142.035 195.501 139.927 196 137.502 196H128.492ZM143.86 183.896C143.86 182.491 143.61 181.255 143.112 180.19C142.613 179.102 141.888 178.263 140.936 177.674C139.984 177.062 138.839 176.756 137.502 176.756H134.068V191.104H137.502C138.862 191.104 140.006 190.798 140.936 190.186C141.888 189.551 142.613 188.69 143.112 187.602C143.61 186.491 143.86 185.256 143.86 183.896ZM171.796 191.104V196H154.83V171.86H171.49V176.756H160.406V181.448H169.926V185.97H160.406V191.104H171.796ZM197.957 171.86V196H192.381V186.106H182.759V196H177.183V171.86H182.759V181.21H192.381V171.86H197.957Z" fill="#2A2C41"/>
</svg>
