<svg width="22" height="22" viewBox="0 0 22 22" fill="none" xmlns="http://www.w3.org/2000/svg">
<path d="M8.2756 20C9.00226 20.6224 9.95668 21 11.002 21C12.0474 21 13.0018 20.6224 13.7285 20M1.0002 4.81989C0.985413 3.36854 1.79173 2.01325 3.09433 1.3M20.9998 4.8199C21.0145 3.36855 20.2082 2.01325 18.9057 1.3M17.1848 7C17.1848 5.4087 16.5334 3.88258 15.374 2.75736C14.2145 1.63214 12.6418 1 11.002 1C9.3622 1 7.78964 1.63214 6.63013 2.75736C5.47063 3.88258 4.81923 5.4087 4.81923 7C4.81923 10.0902 4.01595 12.206 3.11861 13.6054C2.3617 14.7859 1.98324 15.3761 1.99711 15.5408C2.01248 15.7231 2.05228 15.7926 2.20367 15.9016C2.3404 16 2.95675 16 4.18946 16H17.8146C19.0474 16 19.6637 16 19.8004 15.9016C19.9518 15.7926 19.9916 15.7231 20.0069 15.5408C20.0209 15.3761 19.6424 14.7859 18.8855 13.6054C17.9882 12.206 17.1848 10.0902 17.1848 7Z" stroke="#2A2C41" stroke-width="2" stroke-linecap="round" stroke-linejoin="round"/>
</svg>
