<svg width="24" height="48" viewBox="0 0 24 48" fill="none" xmlns="http://www.w3.org/2000/svg">
<rect x="1" y="1" width="22" height="46" rx="11" stroke="white" stroke-width="2"/>
<path d="M16 26C16 26 13.054 30 12 30C10.946 30 8 26 8 26M14 21C14 21.5304 13.7893 22.0391 13.4142 22.4142C13.0391 22.7893 12.5304 23 12 23C11.4696 23 10.9609 22.7893 10.5858 22.4142C10.2107 22.0391 10 21.5304 10 21C10 20.4696 10.2107 19.9609 10.5858 19.5858C10.9609 19.2107 11.4696 19 12 19C12.5304 19 13.0391 19.2107 13.4142 19.5858C13.7893 19.9609 14 20.4696 14 21Z" stroke="white" stroke-width="1.5" stroke-linecap="round" stroke-linejoin="round"/>
</svg>
